HIERARCHY
ROOT root
{
	OFFSET 0.000000 0.000000 0.000000
	CHANNELS 6 Xposition Yposition Zposition Zrotation Yrotation Xrotation
	JOINT lhip
	{
		OFFSET 0.058581 -0.082280 -0.017664
		CHANNELS 3 Zrotation Yrotation Xrotation
		JOINT lknee
		{
			OFFSET 0.043451 -0.386469 0.008037
			CHANNELS 3 Zrotation Yrotation Xrotation
			JOINT lankle
			{
				OFFSET -0.014790 -0.426874 -0.037428
				CHANNELS 3 Zrotation Yrotation Xrotation
				JOINT ltoe
				{
					OFFSET 0.041054 -0.060286 0.122042
					CHANNELS 3 Zrotation Yrotation Xrotation
					End Site
					{
						OFFSET 0.000000 0.000000 0.000000
					}
				}
			}
		}
	}
	JOINT rhip
	{
		OFFSET -0.060310 -0.090513 -0.013543
		CHANNELS 3 Zrotation Yrotation Xrotation
		JOINT rknee
		{
			OFFSET -0.043257 -0.383688 -0.004843
			CHANNELS 3 Zrotation Yrotation Xrotation
			JOINT rankle
			{
				OFFSET 0.019056 -0.420046 -0.034562
				CHANNELS 3 Zrotation Yrotation Xrotation
				JOINT rtoe
				{
					OFFSET -0.034840 -0.062106 0.130323
					CHANNELS 3 Zrotation Yrotation Xrotation
					End Site
					{
						OFFSET 0.000000 0.000000 0.000000
					}
				}
			}
		}
	}
	JOINT lowerback
	{
		OFFSET 0.004439 0.124404 -0.038385
		CHANNELS 3 Zrotation Yrotation Xrotation
		JOINT upperback
		{
			OFFSET 0.004488 0.137956 0.026820
			CHANNELS 3 Zrotation Yrotation Xrotation
			JOINT chest
			{
				OFFSET -0.002265 0.056032 0.002855
				CHANNELS 3 Zrotation Yrotation Xrotation
				JOINT lowerneck
				{
					OFFSET -0.013390 0.211636 -0.033468
					CHANNELS 3 Zrotation Yrotation Xrotation
					JOINT upperneck
					{
						OFFSET 0.010113 0.088937 0.050410
						CHANNELS 3 Zrotation Yrotation Xrotation
						End Site
						{
							OFFSET 0.000000 0.000000 0.000000
						}
					}
				}
				JOINT lclavicle
				{
					OFFSET 0.071702 0.114000 -0.018898
					CHANNELS 3 Zrotation Yrotation Xrotation
					JOINT lshoulder
					{
						OFFSET 0.122921 0.045205 -0.019046
						CHANNELS 3 Zrotation Yrotation Xrotation
						JOINT lelbow
						{
							OFFSET 0.255332 -0.015649 -0.022946
							CHANNELS 3 Zrotation Yrotation Xrotation
							JOINT lwrist
							{
								OFFSET 0.265709 0.012698 -0.007375
								CHANNELS 3 Zrotation Yrotation Xrotation
								End Site
								{
									OFFSET 0.000000 0.000000 0.000000
								}
							}
						}
					}
				}
				JOINT rclavicle
				{
					OFFSET -0.082954 0.112472 -0.023707
					CHANNELS 3 Zrotation Yrotation Xrotation
					JOINT rshoulder
					{
						OFFSET -0.113228 0.046853 -0.008472
						CHANNELS 3 Zrotation Yrotation Xrotation
						JOINT relbow
						{
							OFFSET -0.260127 -0.014369 -0.031269
							CHANNELS 3 Zrotation Yrotation Xrotation
							JOINT rwrist
							{
								OFFSET -0.269108 0.006794 -0.006027
								CHANNELS 3 Zrotation Yrotation Xrotation
								End Site
								{
									OFFSET 0.000000 0.000000 0.000000
								}
							}
						}
					}
				}
			}
		}
	}
}
MOTION
Frames: 11
Frame Time: 0.033333
1.169304 0.170995 0.997189 -85.997415 3.952594 85.468133 1.315067 0.256879 8.041803 -2.880429 -13.973789 1.305792 4.855077 7.765840 -16.102044 0.000000 -0.000000 0.000000 4.855130 -3.103227 5.762698 3.568797 -1.061347 4.290309 3.712756 -3.654315 -9.010737 0.000000 -0.000000 0.000000 -2.215678 0.368139 10.905208 2.422302 -5.575411 5.947038 1.434590 -2.550879 5.644421 3.408495 -9.727389 10.145637 4.534031 -13.392211 8.211470 -24.041561 3.724766 2.482774 -62.303553 -11.237590 7.391889 14.240701 -29.048519 -9.792465 2.951474 0.078768 -18.820771 22.003678 -2.262986 -1.032890 63.892888 1.667709 11.382605 -20.430390 33.922074 -0.257932 6.211612 -1.481550 1.495540 
1.172875 0.169730 0.996299 -86.380946 3.503595 86.985559 0.634950 0.491876 5.641422 -2.868416 -13.702654 2.100516 4.584648 7.814925 -15.987610 0.000000 -0.000000 0.000000 4.277960 -1.661849 3.235710 3.700664 -1.628900 5.340500 4.268441 -4.086422 -9.285222 0.000000 -0.000000 0.000000 -2.412979 0.544158 9.305379 2.433965 -5.408187 5.653476 0.934423 -2.343603 5.809215 3.915167 -9.747662 10.118136 4.169059 -13.420251 8.625647 -24.850476 4.000321 1.961479 -62.132345 -9.982784 8.652739 12.922911 -28.096932 -1.517854 17.099682 -1.607946 -5.190416 22.190183 -3.102371 -1.036385 63.873543 0.927242 11.307352 -19.712306 36.236156 1.690372 3.484457 0.164224 0.097055 
1.173080 0.168918 0.996446 -86.188319 3.813030 87.060581 0.912189 0.293866 5.660257 -2.839738 -13.725251 1.951903 4.662623 7.580839 -15.717543 0.000000 -0.000000 0.000000 4.542620 -1.452966 3.099436 3.758304 -1.893099 5.153273 4.172822 -4.155695 -8.406686 0.000000 -0.000000 0.000000 -2.352044 0.694746 8.612743 2.910346 -5.253312 6.719531 1.138017 -2.268956 5.165891 3.737941 -9.760706 10.286561 3.850023 -13.204926 8.468459 -24.581891 4.635982 1.625538 -64.143016 -9.294880 8.550775 13.274778 -28.719207 1.769924 -1.445624 0.369655 -10.993225 21.891618 -4.670573 -0.898337 64.247529 0.446727 10.768342 -24.070076 41.040100 1.286951 18.550987 -2.187786 -0.047167 
1.173865 0.169503 0.996525 -86.350954 3.689026 87.122528 0.872555 0.006499 5.667732 -3.013001 -13.143316 1.908150 5.021345 7.575217 -15.819328 0.000000 -0.000000 0.000000 4.392966 -0.896975 2.970880 3.832785 -2.400407 5.395763 3.734628 -4.224587 -9.019546 0.000000 -0.000000 0.000000 -2.356717 0.890979 8.629024 2.871579 -5.054151 6.201000 0.876721 -2.560122 5.695606 4.034047 -8.755407 10.573150 3.721560 -13.311142 7.905063 -24.250286 4.829722 2.808099 -63.744165 -9.336077 9.435960 12.476850 -30.155623 0.178821 4.119223 0.440874 -12.970411 21.839923 -4.410979 -0.201665 64.832352 -0.170847 12.999102 -21.314480 45.992126 -3.027568 0.387902 0.816989 -7.675673 
1.174005 0.169909 0.996285 -86.257452 3.683093 87.100647 0.960494 0.052638 5.662795 -3.111553 -13.168122 1.891082 4.968296 7.348065 -15.743360 0.000000 -0.000000 0.000000 4.374821 -0.872451 2.973192 3.837044 -2.492480 5.464068 3.773459 -4.163377 -8.972420 0.000000 -0.000000 0.000000 -2.388742 0.902915 8.610392 2.929369 -5.129595 6.285694 0.838240 -2.638573 5.671799 4.031171 -8.916549 10.789955 3.530168 -13.398764 7.933033 -24.533536 5.062674 3.076272 -63.375280 -9.209747 9.250109 12.315742 -30.657102 -0.195974 4.519458 0.171285 -12.637143 21.803726 -4.780204 -0.203773 64.753548 -0.406089 13.429282 -22.334941 49.966384 -3.607944 0.124327 2.054559 -8.815449 
1.173474 0.170094 0.996296 -86.073289 3.756988 86.831050 1.135374 0.336662 5.930238 -3.140024 -13.170859 1.938372 4.874272 7.012674 -15.908322 0.000000 -0.000000 0.000000 4.474708 -1.189834 3.283375 3.794764 -2.553388 5.563234 3.489131 -4.124933 -9.224519 0.000000 -0.000000 0.000000 -2.355704 0.959619 8.606474 3.030418 -5.333536 6.627644 0.813008 -2.665552 5.662698 3.918128 -8.554332 10.852006 3.383522 -13.317046 8.016313 -24.593718 4.979172 3.291178 -63.239210 -9.010355 8.996048 12.048921 -30.776596 -0.239348 4.930218 0.007037 -12.452326 21.591872 -5.070876 -0.290996 64.785054 -0.926948 14.104856 -24.452317 56.346228 -4.865995 -0.418812 3.728356 -10.925512 
1.173987 0.170159 0.996517 -86.198080 3.768116 86.597791 1.178695 0.458906 6.154788 -3.146526 -12.910808 1.950057 4.753665 6.670256 -15.912829 0.000000 -0.000000 0.000000 4.488436 -1.060610 3.466554 3.766586 -2.714864 5.634545 3.366959 -3.844786 -9.094507 0.000000 -0.000000 0.000000 -2.329369 1.004191 8.769072 3.048400 -5.532893 6.897131 0.698025 -2.687893 5.645552 3.948112 -7.879069 10.574614 3.170961 -13.091071 8.259145 -24.512541 4.867878 3.257277 -63.207846 -8.511262 8.591861 11.969812 -30.854909 -0.371525 5.003010 -0.730998 -12.307130 21.360688 -5.052147 -0.564141 64.965463 -1.144051 15.101801 -28.768003 63.314786 -7.814485 -1.404289 5.908522 -12.398903 
1.172353 0.169737 0.997283 -85.454413 4.085436 85.957872 1.558375 0.599526 6.926711 -3.062403 -13.326021 1.989656 4.506420 6.116920 -16.113684 0.000000 -0.000000 0.000000 4.827476 -1.778660 4.727432 3.761892 -2.609615 4.887638 3.324098 -3.940700 -9.362745 0.000000 -0.000000 0.000000 -2.028049 0.618616 9.110770 3.132500 -6.093211 7.282093 0.668594 -2.834601 5.607753 3.684352 -7.737185 10.993594 3.072685 -12.818006 7.942176 -24.706528 4.395191 3.698062 -63.079419 -8.241853 8.109385 12.094417 -30.493850 -1.149309 5.648940 -0.912321 -12.517455 20.948091 -4.603805 -0.883271 64.936245 -1.275736 16.061244 -35.866519 70.438170 -13.831421 -3.036396 7.536385 -14.961663 
1.174542 0.170337 0.997025 -86.162180 3.871316 86.358375 1.318434 0.666966 6.284106 -3.095420 -12.669049 2.116219 4.622716 6.068250 -15.975684 0.000000 -0.000000 0.000000 4.608287 -1.043457 3.712980 3.790735 -2.982506 5.543427 3.186263 -3.618187 -9.434815 0.000000 -0.000000 0.000000 -2.278105 0.955574 8.769202 3.108602 -6.121483 7.188958 0.599106 -2.732218 5.588114 3.837150 -7.873381 10.896808 3.000976 -13.228111 7.907003 -24.655224 3.963274 3.728081 -62.992964 -7.758729 7.709644 12.092971 -30.016130 -1.652534 5.875150 -0.472496 -12.059330 20.556410 -4.264933 -1.218067 65.331680 -0.727776 17.197663 -50.012816 76.495715 -26.560412 -3.886807 8.058248 -16.278147 
1.175302 0.170545 0.997123 -86.368986 3.807868 86.232782 1.205618 0.881791 6.296919 -2.940290 -12.402858 2.219636 4.488082 5.722274 -16.073105 0.000000 -0.000000 0.000000 4.522313 -0.973802 3.774251 3.775637 -3.119041 5.572539 3.231388 -3.380680 -9.447250 0.000000 -0.000000 0.000000 -2.348923 1.106960 8.756973 3.092729 -6.360068 7.439526 0.522679 -2.767238 5.428564 4.039843 -7.792546 10.918484 2.690511 -13.309055 8.172370 -24.693486 3.520296 3.702476 -62.850242 -7.170857 7.101667 11.806742 -29.413641 -1.829546 5.957617 -0.652612 -11.530028 20.110386 -3.537991 -1.820461 65.638401 0.384530 18.378718 -85.415661 80.629907 -60.522476 -4.662968 8.620463 -17.884570 
1.175938 0.171346 0.997180 -86.519542 3.845032 86.286716 1.339640 0.919403 6.136846 -3.040038 -12.105056 2.314390 4.462753 5.573865 -16.049421 0.000000 -0.000000 0.000000 4.673857 -0.746696 3.659905 3.692802 -3.125882 5.585836 2.984726 -3.443064 -9.506361 0.000000 -0.000000 0.000000 -2.425000 1.194193 8.683910 3.137923 -6.469875 7.444628 0.457882 -2.784253 5.282022 4.321978 -8.288659 10.895965 2.486753 -13.718955 8.102046 -24.703855 3.145660 3.688513 -62.841804 -6.668114 6.703095 11.881937 -28.927378 -1.849334 6.288142 -0.336612 -11.134934 19.544119 -2.839349 -2.242441 66.275341 1.530056 19.193077 -115.599837 80.360980 -89.080446 -5.628915 8.491222 -17.339595 
